<?xml version="1.0" standalone="no"?>
<!DOCTYPE svg PUBLIC "-//W3C//DTD SVG 20010904//EN"
 "http://www.w3.org/TR/2001/REC-SVG-20010904/DTD/svg10.dtd">
<svg version="1.0" xmlns="http://www.w3.org/2000/svg"
 width="1024.000000pt" height="1024.000000pt" viewBox="0 0 1024.000000 1024.000000"
 preserveAspectRatio="xMidYMid meet">

<g transform="translate(0.000000,1024.000000) scale(0.100000,-0.100000)"
fill="#000000" stroke="none">
<path d="M7062 8765 c-18 -8 -45 -12 -61 -9 -84 17 -169 -54 -242 -200 -50
-102 -67 -203 -50 -301 6 -36 14 -72 17 -80 3 -8 -38 29 -93 83 -111 110 -197
162 -301 183 -78 15 -127 3 -180 -45 -20 -18 -63 -45 -94 -60 -100 -47 -125
-118 -83 -239 14 -42 32 -101 40 -132 41 -155 161 -262 379 -335 l79 -27 -44
-7 c-24 -4 -67 -17 -94 -30 -164 -77 -216 -187 -136 -286 22 -28 31 -50 31
-75 0 -51 43 -90 118 -106 75 -17 129 -40 191 -83 112 -77 235 -96 362 -56 72
22 169 76 215 121 l32 31 6 -44 c62 -414 45 -766 -59 -1206 -127 -534 -370
-1106 -602 -1415 -24 -31 -43 -62 -43 -67 0 -18 26 -11 47 13 32 34 146 210
195 299 81 150 160 263 237 338 103 101 148 124 301 150 151 26 236 58 360
136 107 68 140 83 260 120 l85 27 -31 13 c-47 19 -201 44 -277 44 -80 0 -198
-23 -265 -51 -63 -27 -181 -118 -228 -177 -35 -42 -264 -272 -272 -272 -2 0
32 69 75 153 135 261 278 454 390 525 27 17 95 49 153 72 135 55 251 131 336
223 86 93 136 170 217 337 74 153 126 219 243 306 75 55 93 81 52 71 -13 -3
-68 -15 -123 -26 -300 -64 -482 -155 -633 -316 -131 -140 -194 -255 -288 -525
-29 -85 -64 -168 -76 -185 -66 -88 -174 -247 -200 -293 -17 -29 -32 -51 -34
-49 -2 2 10 41 27 88 105 288 190 678 219 1009 19 224 10 560 -20 705 -7 29
-8 68 -3 93 l8 42 49 -66 c89 -120 207 -179 401 -197 248 -23 307 -14 401 67
21 18 74 50 117 70 89 43 113 74 102 135 -3 20 -9 70 -13 112 -8 90 -31 126
-126 196 -77 57 -133 82 -219 97 l-67 12 62 31 c80 40 139 90 188 163 38 56
80 160 80 199 0 11 7 46 15 78 20 78 19 132 -5 171 -23 38 -71 69 -118 78 -19
4 -59 22 -90 40 -117 71 -214 57 -354 -53 -52 -41 -123 -116 -158 -169 -15
-21 -16 -17 -16 69 1 162 -62 298 -193 420 -79 74 -133 91 -199 62z m151 -61
c47 -39 133 -143 161 -195 54 -98 68 -208 42 -341 -16 -82 -89 -304 -129 -389
-25 -54 -25 -57 -6 -52 24 7 51 64 110 231 53 150 107 239 204 338 154 157
259 187 385 109 19 -12 61 -32 93 -44 85 -34 100 -59 93 -146 -15 -185 -43
-273 -117 -364 -16 -19 -25 -39 -22 -44 3 -6 1 -7 -4 -4 -6 4 -28 -7 -49 -25
-61 -48 -132 -76 -312 -123 -92 -24 -196 -52 -232 -63 -36 -11 -86 -22 -110
-26 l-45 -6 48 25 c26 14 96 58 155 99 59 40 135 90 170 110 34 21 62 40 62
43 0 9 -111 -57 -213 -126 -54 -36 -131 -84 -170 -106 -40 -23 -85 -50 -102
-60 -23 -15 -27 -16 -17 -3 7 9 9 18 4 20 -6 1 23 46 64 98 88 113 201 275
185 266 -6 -4 -30 -35 -53 -69 -64 -94 -118 -156 -141 -159 -15 -2 -35 -27
-63 -78 -37 -65 -40 -76 -26 -82 15 -6 14 -8 -5 -14 -27 -8 -30 -19 -6 -28 23
-9 2 -28 -31 -28 -14 0 -26 -5 -26 -10 0 -5 -8 -4 -19 1 -39 22 -201 -27 -321
-96 -68 -39 -290 -185 -290 -190 0 -6 30 12 155 92 161 102 358 192 402 183
14 -3 -7 -30 -83 -109 -56 -59 -107 -116 -114 -129 -15 -27 189 182 210 216
22 37 51 27 78 -27 12 -25 27 -70 34 -101 10 -48 9 -62 -6 -101 -48 -126 -255
-238 -411 -224 -71 7 -120 26 -194 75 -30 19 -100 50 -155 69 -56 18 -107 41
-113 50 -7 9 -13 31 -13 48 0 18 -11 47 -25 66 -57 78 -61 119 -17 179 25 34
116 87 181 107 91 26 238 14 401 -32 l134 -39 -94 -17 c-113 -20 -232 -52
-318 -86 -84 -34 -74 -39 13 -7 105 38 289 81 385 89 47 4 93 12 104 17 16 9
11 15 -45 51 -84 56 -108 103 -120 237 -6 78 -17 121 -50 207 -87 226 -105
325 -79 434 19 80 79 195 131 250 l45 49 70 1 c38 0 85 6 104 13 43 16 79 7
123 -30z m-837 -311 c76 -25 150 -78 238 -167 89 -91 165 -200 195 -281 19
-50 41 -156 41 -198 0 -21 -51 42 -102 124 -16 27 -32 49 -35 49 -7 0 42 -84
88 -150 21 -30 45 -72 54 -93 l16 -39 -39 32 c-22 17 -64 62 -93 98 -160 202
-207 256 -300 347 l-103 100 79 -85 c108 -115 179 -199 255 -300 l64 -84 -85
73 c-46 40 -128 105 -181 143 -96 68 -264 168 -283 168 -5 0 24 -20 67 -44
105 -60 238 -152 332 -230 116 -97 317 -279 312 -283 -8 -9 -76 27 -166 88
-104 71 -181 118 -165 102 9 -9 105 -76 218 -153 25 -17 63 -37 84 -45 63 -23
15 -17 -107 14 -64 16 -149 34 -190 40 -112 16 -186 37 -276 81 -139 67 -214
153 -248 283 -8 31 -25 84 -37 117 -36 99 -15 166 66 207 17 9 56 35 88 59 52
39 65 44 111 44 29 0 75 -7 102 -17z m1606 -773 c74 -23 148 -70 197 -126 42
-47 52 -79 44 -131 -3 -20 1 -51 11 -77 25 -66 8 -94 -88 -139 -40 -20 -97
-53 -126 -75 -76 -58 -110 -65 -269 -57 -75 4 -165 13 -200 21 -142 32 -247
110 -322 239 -29 49 -79 165 -79 181 0 21 210 -82 331 -162 53 -35 100 -64
104 -64 25 0 -178 131 -272 177 -62 29 -113 55 -113 57 0 2 37 2 83 0 176 -6
506 -87 646 -159 29 -14 50 -22 47 -17 -10 16 -148 79 -233 106 -94 29 -252
63 -345 73 l-63 7 45 8 c25 5 131 12 235 17 l190 9 -215 -4 c-118 -3 -244 -7
-280 -10 -42 -4 -61 -2 -55 4 6 5 80 32 165 60 278 91 417 106 562 62z m193
-1002 c-16 -6 -37 -17 -46 -24 -19 -17 -33 -18 -23 -3 4 7 0 9 -12 6 -11 -4
-40 -11 -66 -18 -27 -6 -48 -15 -48 -20 0 -5 -7 -6 -17 -2 -21 8 -1 16 117 49
88 23 152 32 95 12z m-85 -42 c0 -11 -19 -15 -25 -6 -3 5 1 10 9 10 9 0 16 -2
16 -4z m26 -36 c-19 -22 -50 -64 -67 -95 -34 -60 -34 -61 -45 -43 -4 6 -3 8 3
5 6 -4 13 0 16 7 4 10 -2 16 -16 19 -17 3 -15 5 8 6 23 1 27 3 15 11 -13 9
-13 10 0 10 15 0 45 38 37 46 -8 8 -37 -8 -31 -17 3 -5 -2 -6 -11 -3 -9 4 -15
3 -14 -2 1 -5 1 -16 0 -24 -1 -13 -3 -13 -10 -1 -8 12 -12 12 -26 -2 -19 -19
-30 -22 -19 -6 11 18 126 89 135 83 5 -3 9 0 9 7 0 12 29 38 44 39 4 0 -8 -18
-28 -40z m-56 16 c0 -2 -16 -13 -35 -25 -19 -11 -35 -18 -35 -16 0 5 61 45 68
45 1 0 2 -2 2 -4z m-170 -29 c0 -2 -10 -12 -22 -23 l-23 -19 19 23 c18 21 26
27 26 19z m-52 -21 c-7 -8 -15 -12 -17 -11 -5 6 10 25 20 25 5 0 4 -6 -3 -14z
m72 10 c0 -2 -8 -10 -17 -17 -16 -13 -17 -12 -4 4 13 16 21 21 21 13z m-102
-51 c-3 -3 -9 2 -12 12 -6 14 -5 15 5 6 7 -7 10 -15 7 -18z m122 12 c0 -2 -15
-16 -32 -33 l-33 -29 29 33 c28 30 36 37 36 29z m-170 -10 c0 -2 -10 -12 -22
-23 l-23 -19 19 23 c18 21 26 27 26 19z m55 -58 c-19 -36 -12 -52 10 -23 8 10
15 16 15 12 0 -4 -16 -23 -35 -42 -19 -20 -35 -32 -35 -27 0 5 7 14 15 21 8 7
12 16 9 21 -5 9 22 69 32 69 2 0 -3 -14 -11 -31z m108 7 c-4 -7 -29 -33 -55
-56 -27 -24 -45 -47 -41 -54 3 -6 3 -8 -2 -4 -4 4 -15 3 -24 -4 -9 -7 15 21
54 60 70 73 82 83 68 58z m-213 -6 c0 -5 -2 -10 -4 -10 -3 0 -8 5 -11 10 -3 6
-1 10 4 10 6 0 11 -4 11 -10z m53 -35 c-3 -9 -8 -14 -10 -11 -3 3 -2 9 2 15 9
16 15 13 8 -4z m236 -22 c-21 -55 -51 -99 -82 -120 -34 -23 -147 -66 -155 -59
-2 3 21 12 52 22 38 12 52 21 44 27 -9 5 -6 6 7 3 29 -8 105 58 88 75 -11 11
-13 10 -13 -3 0 -9 -4 -19 -8 -22 -4 -2 -8 4 -8 15 0 10 3 19 7 19 4 0 5 10 3
23 -5 22 -4 22 5 1 16 -37 28 -35 44 6 8 22 18 40 21 40 3 0 1 -12 -5 -27z
m-369 13 c0 -2 -8 -10 -17 -17 -16 -13 -17 -12 -4 4 13 16 21 21 21 13z m103
-61 c-3 -9 -8 -14 -10 -11 -3 3 -2 9 2 15 9 16 15 13 8 -4z m-173 -18 c0 -2
-10 -12 -22 -23 l-23 -19 19 23 c18 21 26 27 26 19z m46 -34 c-8 -15 -15 -25
-16 -21 0 12 23 58 27 54 3 -2 -2 -17 -11 -33z m100 -1 c-17 -16 -18 -16 -5 5
7 12 15 20 18 17 3 -2 -3 -12 -13 -22z m81 -5 c2 -20 2 -20 -8 -4 -6 10 -15
14 -22 10 -7 -4 -6 1 2 10 16 20 24 16 28 -16z m-41 -26 c0 -10 -6 -17 -12
-14 -20 7 -29 -19 -11 -32 14 -10 12 -14 -17 -28 -19 -8 -37 -13 -40 -10 -4 5
70 103 78 103 1 0 2 -8 2 -19z m-56 6 c0 -2 -12 -14 -27 -28 l-26 -24 19 27
c16 23 34 36 34 25z m127 -13 c-3 -3 -12 -4 -19 -1 -8 3 -5 6 6 6 11 1 17 -2
13 -5z m112 -13 c-7 -11 -52 -31 -113 -51 -56 -18 -119 -42 -141 -53 -31 -15
-37 -16 -25 -3 9 9 69 34 135 57 66 22 124 47 130 55 15 21 27 17 14 -5z m-48
-73 c-16 -24 -40 -52 -53 -64 -32 -28 -119 -80 -149 -88 -14 -4 -9 1 13 13 35
18 108 60 118 68 2 2 -2 9 -10 14 -12 8 -10 9 6 5 24 -7 60 26 48 45 -5 8 -3
10 6 4 10 -6 12 -4 6 11 -4 10 -4 15 0 12 3 -4 13 -1 21 7 25 26 23 16 -6 -27z
m-277 -4 c-20 -30 -29 -32 -12 -1 7 12 11 26 10 30 -1 5 2 6 8 2 6 -4 4 -15
-6 -31z m213 -30 c-3 -3 -12 -4 -19 -1 -8 3 -5 6 6 6 11 1 17 -2 13 -5z m-247
-8 c0 -2 -8 -10 -17 -17 -16 -13 -17 -12 -4 4 13 16 21 21 21 13z m-50 -34 c0
-16 -7 -37 -16 -48 -15 -18 -15 -18 -5 3 6 12 11 33 11 47 0 14 2 26 5 26 3 0
5 -13 5 -28z m56 -30 l-29 -27 23 32 c13 18 26 30 29 28 3 -3 -8 -18 -23 -33z
m-185 -19 c-12 -20 -14 -14 -5 12 4 9 9 14 11 11 3 -2 0 -13 -6 -23z m79 -43
c-6 -10 -16 -22 -23 -26 -9 -6 -9 -4 1 8 7 9 12 20 11 24 -3 18 1 25 11 19 7
-4 7 -12 0 -25z m255 -10 c-21 -22 -41 -37 -44 -35 -2 3 4 12 15 20 17 12 12
12 -36 0 -30 -7 -77 -16 -105 -19 -49 -5 -49 -5 -10 5 22 5 73 17 113 26 40 9
77 22 83 30 6 7 14 13 17 13 3 0 -11 -18 -33 -40z m-198 6 c0 -8 -9 -17 -20
-20 -18 -4 -18 -4 -1 15 21 23 21 23 21 5z m116 7 c-7 -2 -21 -2 -30 0 -10 3
-4 5 12 5 17 0 24 -2 18 -5z m24 -56 c-3 -10 -127 -82 -127 -74 0 3 25 19 55
36 31 18 54 35 51 40 -3 4 2 8 10 8 8 0 13 -5 11 -10z m-317 -97 c-39 -47 -83
-86 -50 -45 29 36 83 95 88 95 2 0 -15 -22 -38 -50z m170 11 c-8 -5 -26 -11
-40 -15 -21 -5 -20 -3 5 9 32 15 60 20 35 6z m-110 -15 c0 -2 -7 -7 -16 -10
-8 -3 -12 -2 -9 4 6 10 25 14 25 6z m30 -16 c-20 -13 -33 -13 -25 0 3 6 14 10
23 10 15 0 15 -2 2 -10z m125 -318 c-38 -32 -124 -86 -182 -112 -37 -17 -81
-38 -98 -47 l-30 -17 16 24 c9 14 26 26 39 26 12 1 29 9 38 18 14 14 14 17 2
14 -8 -2 -20 -10 -27 -18 -8 -10 -12 -11 -13 -3 0 6 9 18 20 26 11 8 18 16 15
19 -13 12 38 40 106 57 78 21 129 27 114 13z m168 -2 c33 0 58 -2 56 -4 -2 -3
-47 -12 -99 -21 -52 -8 -115 -22 -139 -30 -25 -8 -46 -13 -48 -11 -4 3 70 55
97 68 8 4 28 5 44 3 16 -3 56 -5 89 -5z m-68 -73 c-33 -19 -84 -49 -113 -67
-45 -29 -62 -34 -117 -34 -88 -1 -104 16 -40 44 68 29 134 50 223 70 110 25
114 24 47 -13z m-410 -71 c-51 -57 -99 -97 -79 -65 4 7 1 10 -7 7 -8 -3 -13
-10 -12 -15 1 -5 -8 -15 -19 -22 l-21 -13 21 29 c33 45 161 157 170 148 2 -2
-22 -33 -53 -69z m90 -36 c-3 -4 1 -8 8 -7 57 2 110 -4 102 -12 -19 -19 -161
-59 -230 -66 -38 -3 -79 -9 -90 -11 -14 -4 -10 1 10 15 17 12 35 21 40 21 6 0
3 -5 -5 -10 -12 -8 -11 -10 5 -9 39 2 68 15 71 32 3 20 0 21 -28 6 -11 -6 -22
-8 -25 -5 -8 8 120 64 134 59 7 -3 11 -9 8 -13z"/>
<path d="M6990 8498 c0 -3 9 -48 19 -99 24 -117 40 -241 56 -434 10 -117 13
-134 14 -77 1 102 -25 342 -54 484 -14 67 -27 123 -30 126 -3 3 -5 3 -5 0z"/>
<path d="M7203 8200 c-7 -63 -22 -169 -34 -235 -31 -184 -32 -190 -25 -184 18
17 81 434 74 500 -2 19 -9 -18 -15 -81z"/>
<path d="M7686 8038 c-259 -260 -466 -478 -455 -478 12 0 152 142 327 333 79
86 185 195 235 242 51 46 88 85 83 85 -5 0 -90 -82 -190 -182z"/>
<path d="M6920 8187 c0 -2 11 -37 25 -78 25 -73 84 -281 104 -369 l10 -45 -5
55 c-3 30 -19 102 -35 160 -42 149 -99 308 -99 277z"/>
<path d="M7111 7668 c-11 -51 -22 -102 -24 -113 -3 -11 -6 -2 -7 20 -3 60 -10
99 -21 110 -12 12 -3 -94 13 -147 12 -41 38 -61 31 -24 -3 12 2 49 10 82 17
67 31 164 24 164 -3 0 -14 -42 -26 -92z"/>
<path d="M7086 7722 c-2 -4 -1 -14 5 -22 7 -12 9 -10 9 8 0 23 -5 28 -14 14z"/>
<path d="M7684 6158 c-19 -21 -19 -21 6 -8 33 17 33 17 22 24 -5 3 -18 -4 -28
-16z"/>
<path d="M7488 5453 c7 -3 16 -2 19 1 4 3 -2 6 -13 5 -11 0 -14 -3 -6 -6z"/>
<path d="M7382 5424 c-29 -12 -32 -17 -21 -30 17 -20 55 -14 51 9 -2 9 2 17 8
17 5 0 10 5 10 10 0 13 -7 12 -48 -6z m18 -19 c0 -8 -4 -15 -10 -15 -5 0 -7 7
-4 15 4 8 8 15 10 15 2 0 4 -7 4 -15z"/>
<path d="M7470 5430 c-9 -6 -10 -10 -3 -10 6 0 15 5 18 10 8 12 4 12 -15 0z"/>
<path d="M7438 5403 c7 -3 16 -2 19 1 4 3 -2 6 -13 5 -11 0 -14 -3 -6 -6z"/>
<path d="M7628 5453 c7 -3 16 -2 19 1 4 3 -2 6 -13 5 -11 0 -14 -3 -6 -6z"/>
<path d="M7396 5325 c-11 -8 -15 -15 -9 -15 7 0 15 5 18 11 4 6 14 8 22 5 8
-3 11 -1 8 4 -8 13 -16 12 -39 -5z"/>
<path d="M7220 5315 c-7 -9 -8 -15 -2 -15 5 0 12 7 16 15 3 8 4 15 2 15 -2 0
-9 -7 -16 -15z"/>
<path d="M7185 5280 c-3 -6 1 -7 9 -4 18 7 21 14 7 14 -6 0 -13 -4 -16 -10z"/>
<path d="M7279 5263 c-16 -19 -9 -21 30 -8 34 12 34 12 8 17 -16 3 -31 0 -38
-9z"/>
<path d="M1680 6843 c0 -27 4 -30 58 -41 39 -8 67 -21 83 -38 l24 -26 3 -686
c2 -673 2 -688 -18 -720 -22 -36 -54 -52 -105 -52 -29 0 -33 -4 -37 -30 l-5
-30 344 0 343 0 0 30 c0 28 -3 30 -37 31 -56 0 -103 20 -127 52 -20 27 -21 43
-24 292 l-3 263 223 4 c208 4 229 7 304 31 227 75 344 231 344 458 0 135 -47
246 -141 333 -64 60 -128 94 -240 128 -71 21 -91 22 -531 26 l-458 3 0 -28z
m714 -73 c163 -24 264 -114 300 -270 40 -168 -9 -369 -107 -444 -60 -46 -112
-58 -264 -64 l-143 -5 0 397 0 396 73 0 c39 0 103 -5 141 -10z"/>
<path d="M3210 6841 c0 -26 3 -29 46 -34 26 -2 58 -14 73 -24 52 -39 52 -44
49 -757 -3 -603 -5 -664 -20 -692 -19 -35 -60 -54 -114 -54 -31 0 -34 -3 -34
-30 l0 -30 335 0 335 0 0 30 c0 28 -3 30 -35 30 -50 0 -100 23 -122 56 -17 27
-18 66 -18 704 0 505 3 682 12 702 17 37 51 58 110 64 48 6 49 7 45 35 l-4 29
-329 0 -329 0 0 -29z"/>
<path d="M4140 6840 c0 -27 3 -30 30 -30 48 0 97 -25 115 -59 14 -27 15 -107
13 -721 l-3 -690 -27 -26 c-19 -20 -39 -28 -77 -32 -48 -4 -51 -6 -51 -33 l0
-29 643 0 644 0 22 213 c12 116 25 233 28 260 6 47 5 47 -24 47 -26 0 -31 -5
-43 -42 -35 -119 -119 -239 -207 -297 -89 -59 -155 -73 -381 -79 l-203 -5 3
699 c2 518 6 706 15 726 17 37 52 58 112 65 48 5 51 7 51 34 l0 29 -330 0
-330 0 0 -30z"/>
<path d="M5660 6841 c0 -27 3 -29 52 -34 65 -8 99 -32 116 -82 20 -59 13
-1349 -7 -1388 -19 -37 -59 -57 -116 -57 -43 0 -45 -1 -45 -30 l0 -30 340 0
340 0 0 29 c0 27 -3 28 -54 34 -59 6 -86 19 -107 51 -20 30 -26 1342 -7 1402
15 46 61 74 121 74 34 0 37 2 37 30 l0 30 -335 0 -335 0 0 -29z"/>
<path d="M3900 4796 c-119 -62 -295 -313 -470 -667 -152 -309 -230 -531 -230
-656 0 -100 31 -158 104 -195 33 -17 53 -20 115 -16 113 7 195 53 331 184 l65
63 1 -52 c2 -60 19 -100 61 -138 51 -48 92 -64 168 -63 124 0 262 82 344 203
l39 56 93 12 c52 6 119 20 149 32 79 30 174 106 265 212 44 51 93 106 108 123
l28 31 -5 -45 c-3 -25 -10 -115 -16 -200 -12 -178 -27 -240 -70 -292 -70 -84
-191 -66 -229 35 -13 32 -49 37 -75 8 -13 -15 -15 -23 -6 -47 29 -76 110 -123
211 -124 79 0 149 20 249 70 158 80 253 166 450 410 l124 154 7 -34 c4 -19 10
-96 13 -170 10 -214 -24 -322 -109 -350 -64 -21 -134 12 -161 77 -16 36 -45
44 -78 20 -43 -32 22 -129 108 -162 35 -13 65 -16 126 -13 72 4 91 10 183 56
85 43 174 102 302 204 21 17 21 17 22 -45 1 -121 71 -202 191 -222 128 -21
311 86 407 238 21 33 38 48 60 53 51 11 158 55 203 85 23 16 42 27 42 26 0 -2
-21 -45 -46 -97 -57 -116 -94 -212 -94 -244 0 -33 22 -48 67 -44 38 3 39 4 99
119 90 172 155 260 294 400 126 127 194 175 231 164 49 -16 7 -181 -125 -498
-32 -76 -55 -144 -52 -152 6 -17 49 -30 71 -22 8 4 32 41 54 84 56 110 123
202 239 324 174 183 290 263 309 214 10 -28 -13 -98 -84 -255 -96 -211 -104
-288 -38 -350 30 -28 107 -38 159 -20 79 26 227 157 349 309 53 66 65 86 56
97 -6 8 -17 14 -23 14 -6 0 -45 -41 -86 -91 -105 -128 -231 -246 -280 -260
-33 -10 -43 -9 -65 5 -21 14 -25 24 -25 65 0 41 13 74 80 208 89 175 115 248
106 298 -17 90 -116 113 -229 53 -65 -35 -215 -171 -300 -273 -28 -33 -48 -53
-44 -45 61 145 87 230 87 281 0 42 -20 86 -45 103 -34 22 -97 20 -153 -6 -48
-22 -239 -203 -334 -318 l-46 -54 69 138 c38 75 69 148 69 161 0 29 -51 51
-81 34 -11 -5 -44 -59 -74 -118 -48 -97 -61 -114 -117 -158 -83 -64 -104 -77
-178 -107 -53 -22 -61 -23 -54 -8 103 235 63 412 -101 446 -61 13 -180 -33
-287 -111 -78 -56 -191 -184 -226 -256 -28 -56 -46 -76 -120 -135 -48 -38
-120 -90 -161 -116 -66 -42 -73 -45 -67 -24 27 91 28 144 7 280 -34 223 -27
271 53 347 20 19 36 43 36 52 0 25 -27 49 -56 49 -41 0 -73 -29 -151 -135
-264 -359 -421 -535 -532 -593 -33 -18 -61 -30 -61 -27 0 3 8 20 17 38 15 27
19 69 23 279 l5 246 31 39 c57 71 67 108 38 137 -21 22 -56 20 -88 -5 -14 -11
-77 -89 -140 -173 -187 -251 -320 -353 -474 -364 l-70 -5 29 59 c82 166 72
327 -24 398 -38 28 -131 27 -208 -3 -161 -62 -340 -231 -398 -379 -8 -17 -66
-83 -130 -145 -181 -174 -303 -226 -371 -159 -39 39 -47 101 -26 204 17 87 28
104 145 237 182 205 249 284 310 366 260 348 342 555 256 641 -31 31 -85 31
-145 0z m103 -121 c-4 -115 -241 -483 -516 -802 -44 -51 -82 -91 -85 -88 -8 8
58 164 139 328 87 175 232 429 288 504 42 56 125 115 155 111 18 -3 21 -9 19
-53z m2687 -690 c39 -20 54 -70 48 -159 -6 -76 -37 -177 -64 -207 -25 -27 -46
-23 -83 15 -89 92 -78 303 20 353 31 16 44 16 79 -2z m-2282 -11 c64 -45 68
-156 10 -291 -39 -91 -55 -99 -104 -52 -48 46 -67 111 -63 215 4 82 5 87 37
115 37 33 84 38 120 13z m-231 -294 c25 -56 71 -102 126 -126 23 -10 44 -19
45 -20 8 -5 -59 -92 -97 -127 -108 -97 -234 -112 -282 -33 -54 88 10 285 138
427 l38 42 6 -59 c3 -32 15 -79 26 -104z m2301 -27 c24 -45 84 -98 125 -108
15 -4 27 -11 27 -17 0 -17 -58 -93 -99 -131 -58 -52 -99 -71 -159 -71 -49 -1
-56 2 -88 36 -31 34 -34 44 -34 96 0 104 48 214 144 329 l40 46 12 -69 c6 -38
21 -88 32 -111z"/>
<path d="M2615 4803 c-285 -36 -599 -166 -763 -316 -144 -133 -210 -349 -148
-482 28 -61 83 -112 131 -121 74 -14 91 48 22 81 -65 31 -90 87 -85 190 5 104
36 163 138 266 143 143 284 215 521 264 149 31 358 43 439 26 70 -15 140 -61
176 -114 23 -35 28 -55 32 -125 4 -79 3 -86 -32 -157 -44 -89 -104 -146 -213
-202 -94 -49 -183 -79 -301 -102 -86 -17 -87 -18 -87 -46 0 -35 4 -36 154 -59
117 -18 170 -39 225 -86 99 -87 111 -238 30 -378 -45 -79 -159 -182 -245 -224
-158 -77 -328 -104 -399 -63 -74 44 -96 124 -54 196 42 73 192 139 392 173 51
8 97 18 102 21 9 5 5 43 -5 53 -9 9 -173 -18 -261 -44 -211 -61 -334 -169
-334 -294 0 -107 93 -179 240 -188 272 -16 619 177 732 405 27 55 32 76 32
141 1 65 -4 86 -27 134 -49 99 -154 167 -317 204 l-94 21 54 7 c79 10 216 58
290 102 80 46 199 164 228 225 49 102 50 237 2 314 -30 48 -105 114 -156 136
-92 41 -279 60 -419 42z"/>
<path d="M2654 4622 c-130 -94 -275 -316 -554 -842 -139 -263 -222 -406 -287
-497 -30 -41 -53 -82 -51 -91 2 -8 16 -20 33 -25 27 -9 32 -7 75 40 51 56 165
220 227 328 22 39 99 183 171 320 220 423 273 505 414 651 48 49 88 98 88 107
0 18 -29 37 -58 37 -10 0 -37 -13 -58 -28z"/>
</g>
</svg>
